# Blender v3.6.1 OBJ File: ''
# www.blender.org
mtllib giorn.mtl
o Giornale_Giorn
v -0.010705 -0.199426 0.150000
v -0.000250 0.200000 0.150000
v -0.010705 -0.199426 -0.150000
v -0.000250 0.200000 -0.150000
v -0.010208 -0.199478 0.150000
v 0.000250 0.200000 0.150000
v -0.010208 -0.199478 -0.150000
v 0.000250 0.200000 -0.150000
v 0.010208 -0.000522 0.150000
v 0.010208 -0.000522 -0.150000
v 0.010705 -0.000574 -0.150000
v 0.010705 -0.000574 0.150000
vt 1.002331 0.500393
vt 1.002331 1.002979
vt -0.002332 1.002978
vt -0.002332 0.500392
vt 0.500000 0.250000
vt 0.625000 0.250000
vt 0.625000 0.500000
vt 0.500000 0.500000
vt 0.672715 0.031515
vt 0.672715 0.017539
vt 0.320440 0.017539
vt 0.320440 0.031515
vt 0.500000 0.750000
vt 0.625000 0.750000
vt 0.625000 1.000000
vt 0.500000 1.000000
vt 0.125000 0.500000
vt 0.375000 0.500000
vt 0.375000 0.750000
vt 0.125000 0.750000
vt 0.875000 0.500000
vt 0.875000 0.750000
vt 0.375000 1.000000
vt 0.672715 0.045491
vt 0.320440 0.045491
vt 0.375000 0.250000
vt 1.002331 -0.002193
vt -0.002332 -0.002193
vn -0.9986 -0.0521 0.0000
vn -0.0000 0.0000 -1.0000
vn 0.9986 0.0521 0.0000
vn -0.0000 0.0000 1.0000
vn -0.1045 -0.9945 0.0000
vn 0.0000 1.0000 0.0000
vn 0.9945 -0.1046 0.0000
vn -0.9945 0.1046 0.0000
usemtl Material
s off
f 9/1/1 2/2/1 4/3/1 10/4/1
f 10/5/2 4/6/2 8/7/2 11/8/2
f 11/9/3 8/10/3 6/11/3 12/12/3
f 12/13/4 6/14/4 2/15/4 9/16/4
f 3/17/5 7/18/5 5/19/5 1/20/5
f 8/7/6 4/21/6 2/22/6 6/14/6
f 5/19/4 12/13/4 9/16/4 1/23/4
f 7/24/7 11/9/7 12/12/7 5/25/7
f 3/26/2 10/5/2 11/8/2 7/18/2
f 1/27/8 9/1/8 10/4/8 3/28/8
