# Blender 3.6.1
# www.blender.org
mtllib GiornaleIrene.mtl
g GiornaleIrene_G
v -0.000250 0.200000 0.150000
v 0.014976 -0.198873 0.150000
v -0.000250 0.200000 -0.150000
v 0.014976 -0.198873 -0.150000
v 0.000250 0.200000 0.150000
v 0.015470 -0.198797 0.150000
v 0.000250 0.200000 -0.150000
v 0.015470 -0.198797 -0.150000
v -0.015470 -0.001203 0.150000
v -0.015470 -0.001203 -0.150000
v -0.014976 -0.001127 -0.150000
v -0.014976 -0.001127 0.150000
vn -0.9883 -0.1522 -0.0000
vn -0.0000 -0.0000 -1.0000
vn 0.9883 0.1522 -0.0000
vn -0.0000 -0.0000 1.0000
vn -0.0000 1.0000 -0.0000
vn 0.1522 -0.9883 -0.0000
vn 0.9971 -0.0755 -0.0000
vn -0.9972 0.0754 -0.0000
vt 0.324722 0.022570
vt 0.664296 0.022570
vt 0.664296 0.034597
vt 0.324722 0.034597
vt 0.375000 0.375000
vt 0.625000 0.375000
vt 0.625000 0.500000
vt 0.375000 0.500000
vt 1.000260 0.492870
vt 1.000260 0.001331
vt 0.000329 0.001331
vt 0.000329 0.492870
vt 0.375000 0.875000
vt 0.625000 0.875000
vt 0.625000 1.000000
vt 0.375000 1.000000
vt 0.125000 0.500000
vt 0.375000 0.750000
vt 0.125000 0.750000
vt 0.875000 0.500000
vt 0.875000 0.750000
vt 0.625000 0.750000
vt 0.999769 1.000854
vt 0.999769 0.492768
vt -0.000073 0.492767
vt -0.000073 1.000854
vt 0.375000 0.250000
vt 0.625000 0.250000
vt 0.324722 0.010543
vt 0.664296 0.010543
s 0
g GiornaleIrene_MaterialeGiornale
usemtl MaterialeGiornale
f 9/1/1 10/4/1 4/3/1 2/2/1
f 10/5/2 11/8/2 8/7/2 4/6/2
f 11/9/3 12/12/3 6/11/3 8/10/3
f 12/13/4 9/16/4 2/15/4 6/14/4
f 3/17/5 1/19/5 5/18/5 7/8/5
f 8/7/6 6/22/6 2/21/6 4/20/6
f 5/18/4 1/13/4 9/14/4 12/22/4
f 7/23/7 5/26/7 12/25/7 11/24/7
f 3/27/2 7/5/2 11/6/2 10/28/2
f 1/29/8 3/1/8 10/2/8 9/30/8
