# Blender 3.6.1
# www.blender.org
mtllib Prova7.mtl
o Vert
v 0.000000 0.000000 0.000000
v 0.000000 0.000000 -0.300000
v 0.005000 0.000000 0.000000
v 0.005000 0.000000 -0.300000
v 0.000000 0.273442 0.000000
v 0.000000 0.273442 -0.300000
v 0.005000 0.273442 0.000000
v 0.005000 0.273442 -0.300000
v 0.000000 0.000000 -0.150000
v 0.005000 0.000000 -0.150000
v 0.000000 0.273442 -0.150000
v 0.005000 0.273442 -0.150000
v 0.005000 0.136721 -0.300000
v 0.000000 0.136721 -0.300000
v 0.000000 0.136721 0.000000
v 0.005000 0.136721 0.000000
v 0.214357 0.136721 -0.150000
v -0.222851 0.136721 -0.150000
vn -0.0000 -1.0000 -0.0000
vn -0.0000 1.0000 -0.0000
vn -0.0000 -0.0000 -1.0000
vn -0.6718 0.5475 -0.4990
vn -0.0000 -0.0000 1.0000
vn 0.6945 0.5317 0.4847
vn 0.6945 -0.5317 0.4847
vn 0.6945 -0.5317 -0.4847
vn 0.6945 0.5317 -0.4847
vn -0.6718 -0.5475 -0.4990
vn -0.6718 -0.5475 0.4990
vn -0.6718 0.5475 0.4990
s 0
usemtl Material.002
f 9//1 2//1 4//1 10//1
f 11//2 12//2 8//2 6//2
f 14//3 6//3 8//3 13//3
f 18//4 11//4 6//4 14//4
f 16//5 7//5 5//5 15//5
f 17//6 12//6 7//6 16//6
f 10//7 17//7 16//7 3//7
f 4//8 13//8 17//8 10//8
f 13//9 8//9 12//9 17//9
f 3//5 16//5 15//5 1//5
f 9//10 18//10 14//10 2//10
f 1//11 15//11 18//11 9//11
f 15//12 5//12 11//12 18//12
f 2//3 14//3 13//3 4//3
f 5//2 7//2 12//2 11//2
f 1//1 9//1 10//1 3//1
