# Blender v3.6.1 OBJ File: ''
# www.blender.org
mtllib stanza.mtl
o stanza_Cube.001
v -5.124575 0.042716 5.124575
v -4.931280 3.042716 4.931280
v -5.124575 0.042715 -5.124575
v -4.931280 3.042715 -4.931280
v 5.124575 0.042716 5.124575
v 4.931280 3.042716 4.931280
v 5.124575 0.042715 -5.124575
v 4.931280 3.042715 -4.931280
v -5.124575 3.042716 5.124575
v -5.124575 3.042715 -5.124575
v 5.124575 3.042715 -5.124575
v 5.124575 3.042716 5.124575
v -4.931280 0.073026 4.931280
v -4.931280 0.073025 -4.931280
v 4.931280 0.073025 -4.931280
v 4.931280 0.073026 4.931280
vt 0.540124 0.000000
vt 0.742671 0.000000
vt 0.742671 0.337578
vt 0.540124 0.337578
vt 0.337578 0.000000
vt 0.540124 -0.000000
vt 0.540124 0.337578
vt 0.337578 0.337578
vt 0.742671 0.675155
vt 0.540124 0.675155
vt 0.540124 0.337578
vt 0.742671 0.337578
vt 0.337578 0.337578
vt 0.540124 0.675155
vt 0.337578 0.675155
vt 0.337578 0.337578
vt 0.000000 0.337578
vt 0.000000 0.000000
vt 0.337578 0.000000
vt 0.006367 0.343944
vt 0.006367 0.668789
vt 0.000000 0.675155
vt 0.000000 0.337578
vt 0.331211 0.668789
vt 0.337578 0.675155
vt 0.331211 0.343944
vt 0.337578 0.337578
vt 0.943171 -0.000000
vt 0.943171 0.324845
vt 0.742671 0.324845
vt 0.742671 -0.000000
vt 0.943171 0.324845
vt 0.943171 0.649689
vt 0.742671 0.649689
vt 0.742671 0.324845
vt 0.943171 0.649689
vt 0.943171 0.974534
vt 0.742671 0.974534
vt 0.742671 0.649689
vt 0.324845 1.000000
vt 0.324845 0.675155
vt 0.525345 0.675155
vt 0.525345 1.000000
vt 0.324845 1.000000
vt 0.000000 1.000000
vt 0.000000 0.675155
vt 0.324845 0.675155
vn -1.0000 0.0000 0.0000
vn 0.0000 0.0000 -1.0000
vn 1.0000 0.0000 0.0000
vn 0.0000 0.0000 1.0000
vn 0.0000 -1.0000 0.0000
vn 0.0000 1.0000 -0.0000
usemtl Pareti_1-3
s off
f 1/1/1 9/2/1 10/3/1 3/4/1
f 3/5/2 10/6/2 11/7/2 7/8/2
f 7/9/3 11/10/3 12/11/3 5/12/3
f 5/13/4 12/11/4 9/14/4 1/15/4
f 3/16/5 7/17/5 5/18/5 1/19/5
f 2/20/6 4/21/6 10/22/6 9/23/6
f 4/21/6 8/24/6 11/25/6 10/22/6
f 8/24/6 6/26/6 12/27/6 11/25/6
f 6/26/6 2/20/6 9/23/6 12/27/6
f 2/28/2 6/29/2 16/30/2 13/31/2
f 8/32/4 4/33/4 14/34/4 15/35/4
usemtl Pareti_2-4
f 6/36/1 8/37/1 15/38/1 16/39/1
f 4/40/3 2/41/3 13/42/3 14/43/3
usemtl Pavimento
f 15/44/6 14/45/6 13/46/6 16/47/6
