# Blender v3.6.1 OBJ File: ''
# www.blender.org
mtllib stanza.mtl
o Cube
v -1.505972 1.190236 -0.766684
v -1.505972 1.895194 -0.766684
v -1.505972 1.190236 -1.471642
v -1.505972 1.895194 -1.471642
v -0.801014 1.190236 -0.766684
v -0.801014 1.895194 -0.766684
v -0.801014 1.190236 -1.471642
v -0.801014 1.895194 -1.471642
vt 0.375000 0.000000
vt 0.625000 0.000000
vt 0.625000 0.250000
vt 0.375000 0.250000
vt 0.625000 0.500000
vt 0.375000 0.500000
vt 0.625000 0.750000
vt 0.375000 0.750000
vt 0.625000 1.000000
vt 0.375000 1.000000
vt 0.125000 0.500000
vt 0.125000 0.750000
vt 0.875000 0.500000
vt 0.875000 0.750000
vn -1.0000 0.0000 0.0000
vn 0.0000 0.0000 -1.0000
vn 1.0000 0.0000 0.0000
vn 0.0000 0.0000 1.0000
vn 0.0000 -1.0000 0.0000
vn 0.0000 1.0000 0.0000
usemtl None
s off
f 1/1/1 2/2/1 4/3/1 3/4/1
f 3/4/2 4/3/2 8/5/2 7/6/2
f 7/6/3 8/5/3 6/7/3 5/8/3
f 5/8/4 6/7/4 2/9/4 1/10/4
f 3/11/5 7/6/5 5/8/5 1/12/5
f 8/5/6 4/13/6 2/14/6 6/7/6
o stanza_Cube.001
v -5.124575 0.042716 5.124575
v -4.931280 3.042716 4.931280
v -5.124575 0.042715 -5.124575
v -4.931280 3.042715 -4.931280
v 5.124575 0.042716 5.124575
v 4.931280 3.042716 4.931280
v 5.124575 0.042715 -5.124575
v 4.931280 3.042715 -4.931280
v -5.124575 3.042716 5.124575
v -5.124575 3.042715 -5.124575
v 5.124575 3.042715 -5.124575
v 5.124575 3.042716 5.124575
v -4.931280 0.073026 4.931280
v -4.931280 0.073025 -4.931280
v 4.931280 0.073025 -4.931280
v 4.931280 0.073026 4.931280
vt 0.540124 0.000000
vt 0.742671 0.000000
vt 0.742671 0.337578
vt 0.540124 0.337578
vt 0.337578 0.000000
vt 0.540124 -0.000000
vt 0.540124 0.337578
vt 0.337578 0.337578
vt 0.742671 0.675155
vt 0.540124 0.675155
vt 0.540124 0.337578
vt 0.742671 0.337578
vt 0.337578 0.337578
vt 0.540124 0.675155
vt 0.337578 0.675155
vt 0.337578 0.337578
vt 0.000000 0.337578
vt 0.000000 0.000000
vt 0.337578 0.000000
vt 0.006367 0.343944
vt 0.006367 0.668789
vt 0.000000 0.675155
vt 0.000000 0.337578
vt 0.331211 0.668789
vt 0.337578 0.675155
vt 0.331211 0.343944
vt 0.337578 0.337578
vt 0.943171 -0.000000
vt 0.943171 0.324845
vt 0.742671 0.324845
vt 0.742671 -0.000000
vt 0.943171 0.324845
vt 0.943171 0.649689
vt 0.742671 0.649689
vt 0.742671 0.324845
vt 0.943171 0.649689
vt 0.943171 0.974534
vt 0.742671 0.974534
vt 0.742671 0.649689
vt 0.324845 1.000000
vt 0.324845 0.675155
vt 0.525345 0.675155
vt 0.525345 1.000000
vt 0.324845 1.000000
vt 0.000000 1.000000
vt 0.000000 0.675155
vt 0.324845 0.675155
vn -1.0000 0.0000 0.0000
vn 0.0000 0.0000 -1.0000
vn 1.0000 0.0000 0.0000
vn 0.0000 0.0000 1.0000
vn 0.0000 -1.0000 0.0000
vn 0.0000 1.0000 -0.0000
usemtl Pareti_1-3
s off
f 9/15/7 17/16/7 18/17/7 11/18/7
f 11/19/8 18/20/8 19/21/8 15/22/8
f 15/23/9 19/24/9 20/25/9 13/26/9
f 13/27/10 20/25/10 17/28/10 9/29/10
f 11/30/11 15/31/11 13/32/11 9/33/11
f 10/34/12 12/35/12 18/36/12 17/37/12
f 12/35/12 16/38/12 19/39/12 18/36/12
f 16/38/12 14/40/12 20/41/12 19/39/12
f 14/40/12 10/34/12 17/37/12 20/41/12
f 10/42/8 14/43/8 24/44/8 21/45/8
f 16/46/10 12/47/10 22/48/10 23/49/10
usemtl Pareti_2-4
f 14/50/7 16/51/7 23/52/7 24/53/7
f 12/54/9 10/55/9 21/56/9 22/57/9
usemtl Pavimento
f 23/58/12 22/59/12 21/60/12 24/61/12
o Cube.002
v 0.546971 1.190236 -0.224268
v 0.546971 1.895194 -0.224268
v 0.546971 1.190236 -0.929226
v 0.546971 1.895194 -0.929226
v 1.251929 1.190236 -0.224268
v 1.251929 1.895194 -0.224268
v 1.251929 1.190236 -0.929226
v 1.251929 1.895194 -0.929226
vt 0.375000 0.000000
vt 0.625000 0.000000
vt 0.625000 0.250000
vt 0.375000 0.250000
vt 0.625000 0.500000
vt 0.375000 0.500000
vt 0.625000 0.750000
vt 0.375000 0.750000
vt 0.625000 1.000000
vt 0.375000 1.000000
vt 0.125000 0.500000
vt 0.125000 0.750000
vt 0.875000 0.500000
vt 0.875000 0.750000
vn -1.0000 0.0000 0.0000
vn 0.0000 0.0000 -1.0000
vn 1.0000 0.0000 0.0000
vn 0.0000 0.0000 1.0000
vn 0.0000 -1.0000 0.0000
vn 0.0000 1.0000 0.0000
usemtl None
s off
f 25/62/13 26/63/13 28/64/13 27/65/13
f 27/65/14 28/64/14 32/66/14 31/67/14
f 31/67/15 32/66/15 30/68/15 29/69/15
f 29/69/16 30/68/16 26/70/16 25/71/16
f 27/72/17 31/67/17 29/69/17 25/73/17
f 32/66/18 28/74/18 26/75/18 30/68/18
o Cube.003
v -1.396116 1.190236 0.682048
v -1.396116 1.895194 0.682048
v -1.396116 1.190236 -0.022909
v -1.396116 1.895194 -0.022909
v -0.691158 1.190236 0.682048
v -0.691158 1.895194 0.682048
v -0.691158 1.190236 -0.022909
v -0.691158 1.895194 -0.022909
vt 0.375000 0.000000
vt 0.625000 0.000000
vt 0.625000 0.250000
vt 0.375000 0.250000
vt 0.625000 0.500000
vt 0.375000 0.500000
vt 0.625000 0.750000
vt 0.375000 0.750000
vt 0.625000 1.000000
vt 0.375000 1.000000
vt 0.125000 0.500000
vt 0.125000 0.750000
vt 0.875000 0.500000
vt 0.875000 0.750000
vn -1.0000 0.0000 0.0000
vn 0.0000 0.0000 -1.0000
vn 1.0000 0.0000 0.0000
vn 0.0000 0.0000 1.0000
vn 0.0000 -1.0000 0.0000
vn 0.0000 1.0000 0.0000
usemtl None
s off
f 33/76/19 34/77/19 36/78/19 35/79/19
f 35/79/20 36/78/20 40/80/20 39/81/20
f 39/81/21 40/80/21 38/82/21 37/83/21
f 37/83/22 38/82/22 34/84/22 33/85/22
f 35/86/23 39/81/23 37/83/23 33/87/23
f 40/80/24 36/88/24 34/89/24 38/82/24
o Cube.004
v 0.814747 1.190236 1.361785
v 0.814747 1.895194 1.361785
v 0.814747 1.190236 0.656828
v 0.814747 1.895194 0.656828
v 1.519704 1.190236 1.361785
v 1.519704 1.895194 1.361785
v 1.519704 1.190236 0.656828
v 1.519704 1.895194 0.656828
vt 0.375000 0.000000
vt 0.625000 0.000000
vt 0.625000 0.250000
vt 0.375000 0.250000
vt 0.625000 0.500000
vt 0.375000 0.500000
vt 0.625000 0.750000
vt 0.375000 0.750000
vt 0.625000 1.000000
vt 0.375000 1.000000
vt 0.125000 0.500000
vt 0.125000 0.750000
vt 0.875000 0.500000
vt 0.875000 0.750000
vn -1.0000 0.0000 0.0000
vn 0.0000 0.0000 -1.0000
vn 1.0000 0.0000 0.0000
vn 0.0000 0.0000 1.0000
vn 0.0000 -1.0000 0.0000
vn 0.0000 1.0000 0.0000
usemtl None
s off
f 41/90/25 42/91/25 44/92/25 43/93/25
f 43/93/26 44/92/26 48/94/26 47/95/26
f 47/95/27 48/94/27 46/96/27 45/97/27
f 45/97/28 46/96/28 42/98/28 41/99/28
f 43/100/29 47/95/29 45/97/29 41/101/29
f 48/94/30 44/102/30 42/103/30 46/96/30
